<svg fill="none" height="16" viewBox="0 0 16 16" width="16" xmlns="http://www.w3.org/2000/svg" xmlns:xlink="http://www.w3.org/1999/xlink"><clipPath id="a"><path d="m0 0h16v16h-16z"/></clipPath><g clip-path="url(#a)"><path d="m13.774 12.9177c-6.47678 3.0823-10.49631.5034-13.069342-1.063-.159218-.0987-.429833.0231-.195037.2928.857209 1.0394 3.666449 3.5445 7.333329 3.5445 3.66945 0 5.85235-2.0021 6.12545-2.3514.2712-.3463.0796-.5373-.1945-.4229zm1.8189-1.0046c-.1739-.2264-1.0576-.2687-1.6137-.2003-.557.0663-1.393.4067-1.3203.6111.0373.0766.1134.0422.496.0078.3837-.0383 1.4585-.1739 1.6825.1188.225.2948-.3428 1.6992-.4465 1.9257-.1002.2264.0383.2848.2265.134.1856-.1508.5216-.5413.7471-1.0939.224-.5556.3606-1.3307.2284-1.5032z" fill="#f90"/><path clip-rule="evenodd" d="m9.41921 6.62799c0 .80877.02043 1.48326-.38836 2.20149-.32995.58401-.8526.94313-1.43655.94313-.79715 0-1.26139-.60733-1.26139-1.50368 0-1.76945 1.58543-2.09059 3.0863-2.09059zm2.09349 5.06001c-.1372.1226-.3358.1314-.4905.0496-.6891-.5722-.8118-.8379-1.19131-1.3839-1.13873 1.1621-1.94461 1.5095-3.42203 1.5095-1.74607 0-3.10674-1.0774-3.10674-3.23515 0-1.6847.91397-2.83222 2.21321-3.39278 1.1271-.49643 2.7009-.58401 3.90388-.72119v-.26865c0-.49347.03791-1.07742-.25111-1.50369-.25406-.3825-.73874-.54018-1.16507-.54018-.79124 0-1.49785.40583-1.67012 1.24673-.03508.18691-.17227.37087-.35912.37961l-2.01472-.21602c-.16931-.03804-.35617-.17522-.30946-.43513.46425-2.440908 2.66865-3.17675 4.64244-3.17675 1.01028 0 2.33005.268647 3.12715 1.03366 1.0103.94307.9139 2.2015.9139 3.57089v3.23516c0 .9723.403 1.39856.7825 1.92416.1343.18686.1635.41173-.0058.55183-.4234.3533-1.1767 1.0103-1.5913 1.3782l-.0059-.0059" fill="#000" fill-rule="evenodd"/><path d="m13.774 12.9177c-6.47678 3.0823-10.49631.5034-13.069342-1.063-.159218-.0987-.429833.0231-.195037.2928.857209 1.0394 3.666449 3.5445 7.333329 3.5445 3.66945 0 5.85235-2.0021 6.12545-2.3514.2712-.3463.0796-.5373-.1945-.4229zm1.8189-1.0046c-.1739-.2264-1.0576-.2687-1.6137-.2003-.557.0663-1.393.4067-1.3203.6111.0373.0766.1134.0422.496.0078.3837-.0383 1.4585-.1739 1.6825.1188.225.2948-.3428 1.6992-.4465 1.9257-.1002.2264.0383.2848.2265.134.1856-.1508.5216-.5413.7471-1.0939.224-.5556.3606-1.3307.2284-1.5032z" fill="#f90"/><path clip-rule="evenodd" d="m9.41921 6.62799c0 .80877.02043 1.48326-.38836 2.20149-.32995.58401-.8526.94313-1.43655.94313-.79715 0-1.26139-.60733-1.26139-1.50368 0-1.76945 1.58543-2.09059 3.0863-2.09059zm2.09349 5.06001c-.1372.1226-.3358.1314-.4905.0496-.6891-.5722-.8118-.8379-1.19131-1.3839-1.13873 1.1621-1.94461 1.5095-3.42203 1.5095-1.74607 0-3.10674-1.0774-3.10674-3.23515 0-1.6847.91397-2.83222 2.21321-3.39278 1.1271-.49643 2.7009-.58401 3.90388-.72119v-.26865c0-.49347.03791-1.07742-.25111-1.50369-.25406-.3825-.73874-.54018-1.16507-.54018-.79124 0-1.49785.40583-1.67012 1.24673-.03508.18691-.17227.37087-.35912.37961l-2.01472-.21602c-.16931-.03804-.35617-.17522-.30946-.43513.46425-2.440908 2.66865-3.17675 4.64244-3.17675 1.01028 0 2.33005.268647 3.12715 1.03366 1.0103.94307.9139 2.2015.9139 3.57089v3.23516c0 .9723.403 1.39856.7825 1.92416.1343.18686.1635.41173-.0058.55183-.4234.3533-1.1767 1.0103-1.5913 1.3782l-.0059-.0059" fill="#000" fill-rule="evenodd"/></g></svg>