<svg height="1306" viewBox="0 0 46.9 24.5" width="2500" xmlns="http://www.w3.org/2000/svg"><path d="m38.3 13.9v-1h8.6v2h-8.6zm0-3.2v-1h8.6v2h-8.6zm0-3.2v-1h8.6v2h-8.6zm0-3.3v-1h8.6v2.1h-8.6zm0-3.1v-1.1h8.6v2.2h-8.6z" fill="#b1e3fa"/><path d="m19.1 13.9v-1h8.6v2h-8.6zm0-3.2v-1h8.6v2h-8.6zm0-3.2v-1h8.6v2h-8.6zm0-3.3v-1h8.6v2.1h-8.6z" fill="#f7bacf"/><path d="m28.7 13.9v-1h8.6v2h-8.6zm0-3.2v-1h8.6v2h-8.6z" fill="#e7ee9f"/><path d="m9.6 23.5v-1h8.4v2h-8.4zm0-3.3v-1h8.4v2h-8.4zm0-3.2v-1h8.4v2h-8.4z" fill="#feea3a"/><path d="m0 13.9v-1h8.4v2h-8.4zm0-3.2v-1h8.4v2h-8.4z" fill="#fe9d7f"/><path d="m38.4 23.5v-1h8.4v2h-8.4zm0-3.3v-1h8.4v2h-8.4zm0-3.2v-1h8.4v2h-8.4z" fill="#4ec2f6"/><path d="m28.8 23.5v-1h8.4v2h-8.4zm0-3.3v-1h8.4v2h-8.4zm0-3.2v-1h8.4v2h-8.4z" fill="#ccdb38"/><path d="m19.2 23.5v-1h8.4v2h-8.4zm0-3.3v-1h8.4v2h-8.4zm0-3.2v-1h8.4v2h-8.4z" fill="#fe3f80"/><path d="m0 23.5v-1h8.4v2h-8.4zm0-3.3v-1h8.4v2h-8.4zm0-3.2v-1h8.4v2h-8.4z" fill="#fe3d02"/></svg>