<svg fill="none" height="16" viewBox="0 0 16 16" width="16" xmlns="http://www.w3.org/2000/svg"><path d="m12.1988 13.6175c.0593.0593.1381.09.2162.09s.1569-.03.2163-.09l1.7436-1.7437c.1194-.1194.1194-.3131 0-.4325-.1193-.1194-.3131-.1194-.4325 0l-1.7436 1.7437c-.1194.1194-.1194.3131 0 .4325zm1.3649-.5613c-.1656-.035-.3275.0725-.3612.2382-.0163.0787-.0494.1437-.0988.1931l-.7631.7631c-.1756.1756-.4918.1444-.7056-.0694-.2131-.2137-.2444-.53-.0688-.705l.7632-.7631c.0493-.0494.1143-.0825.1931-.0987.1656-.0344.2725-.1957.2381-.3613-.0337-.165-.1944-.2725-.3612-.2381-.1957.0406-.3694.1319-.5025.2656l-.7632.7631c-.4143.4138-.3831 1.1182.0694 1.5707.2394.2393.5488.3606.8488.3606.2669 0 .5269-.0963.7218-.2913l.7632-.7631c.1331-.1331.225-.3069.2656-.5025.0337-.1662-.0731-.3281-.2388-.3619zm1.8082-2.6112c-.4525-.45185-1.1569-.4831-1.5706-.0693l-.7631.7631c-.1332.1331-.225.3069-.2657.5025-.0343.1656.0725.3275.2382.3612.1668.0344.3275-.0725.3618-.2381.0163-.0788.0494-.1438.0988-.1931l.7631-.7632c.175-.175.4912-.1443.705.0694.2137.2138.2444.53.0694.7057l-.7632.7631c-.0493.0493-.1143.0825-.1931.0987-.1656.0344-.2718.1957-.2381.3613.03.1443.1575.2443.2994.2443.0206 0 .0412-.0018.0618-.0062.1951-.0406.3694-.1319.5025-.2656l.7632-.7632c.4131-.4137.3825-1.1187-.0694-1.5706zm-5.0019 4.4632h-7.60882c-1.01563 0-1.842556-.8269-1.842556-1.8432l-.000626-10.13053c0-1.01626.826882-1.84256 1.842562-1.84256h9.79934c1.0163 0 1.8426.82688 1.8426 1.84256v6.59247c0 .17938.1456.325.325.325.1793 0 .325-.14563.325-.325l.0006-6.59247c0-1.37437-1.1181-2.493125-2.4931-2.493125h-9.79875c-1.37437 0-2.493123 1.118125-2.493123 2.493125v10.13123c0 1.375 1.118753 2.4931 2.493123 2.4931h7.60875c.1794 0 .325-.1456.325-.325 0-.18-.1456-.3256-.325-.3256zm-1.81682-9.83565h2.34372v-2.4288h-3.56884v6.27439c-.33812-.18625-.72688-.29187-1.14-.29187-1.30625 0-2.36496 1.05813-2.36496 2.36493 0 1.3063 1.05876 2.365 2.36496 2.365 1.30626 0 2.36496-1.0588 2.36496-2.365 0-.0487-.0025-.0968-.005-.1443l.005.0081z" fill="#141414"/></svg>