<svg enable-background="new 0 0 1708.2 1903.7" viewBox="0 0 1708.2 1903.7" xmlns="http://www.w3.org/2000/svg" xmlns:xlink="http://www.w3.org/1999/xlink"><linearGradient id="a" gradientTransform="matrix(11.64 0 0 -22.55 998.4999 33804.2695)" gradientUnits="userSpaceOnUse" x1="-10.6291" x2="-117.3221" y1="1493.9358" y2="1438.8618"><stop offset="0" stop-color="#00a0ff"/><stop offset=".006569999" stop-color="#00a1ff"/><stop offset=".2601" stop-color="#00beff"/><stop offset=".5122" stop-color="#00d2ff"/><stop offset=".7604" stop-color="#00dfff"/><stop offset="1" stop-color="#00e3ff"/></linearGradient><linearGradient id="b" gradientTransform="matrix(9.145 0 0 -7.7 778.095 11818.8516)" gradientUnits="userSpaceOnUse" x1="107.9625" x2="-87.8376" y1="1411.3126" y2="1411.3126"><stop offset="0" stop-color="#ffe000"/><stop offset=".4087" stop-color="#ffbd00"/><stop offset=".7754" stop-color="#ffa500"/><stop offset="1" stop-color="#ff9c00"/></linearGradient><linearGradient id="c" gradientTransform="matrix(15.02 0 0 -11.5775 1313.25 17565.3496)" gradientUnits="userSpaceOnUse" x1="-14.2765" x2="-126.4028" y1="1420.3109" y2="1274.8463"><stop offset="0" stop-color="#ff3a44"/><stop offset="1" stop-color="#c31162"/></linearGradient><linearGradient id="d" gradientTransform="matrix(15.02 0 0 -11.5715 1313.25 17544.8633)" gradientUnits="userSpaceOnUse" x1="-100.6522" x2="-50.5839" y1="1560.7258" y2="1495.7349"><stop offset="0" stop-color="#32a071"/><stop offset=".0685" stop-color="#2da771"/><stop offset=".4762" stop-color="#15cf74"/><stop offset=".8009" stop-color="#06e775"/><stop offset="1" stop-color="#00f076"/></linearGradient><g clip-rule="evenodd" fill-rule="evenodd"><path d="m33.7 29.2c-21.4 23-33.7 58.4-33.7 104.4v1636.2c0 46 12.3 81.4 34.5 103.6l5.8 4.9 916.8-916.8v-20.6l-917.6-916.6s-5.8 4.9-5.8 4.9z" fill="url(#a)"/><path d="m1262.1 1268.3-305.8-305.9v-21.4l305.9-305.9 6.6 4.1 361.8 205.6c103.6 58.4 103.6 154.6 0 213.8l-361.8 205.6c-.1 0-6.7 4.1-6.7 4.1z" fill="url(#b)"/><path d="m1268.7 1264.2-312.4-312.5-922.6 922.6c33.7 36.2 90.4 40.3 153.8 4.9z" fill="url(#c)"/><path d="m1268.7 639.3-1081.2-614.2c-63.3-36.2-120.1-31.3-153.8 4.9l922.5 921.7z" fill="url(#d)"/><path d="m1262.1 1257.6-1073.8 610.1c-60 34.5-113.5 32.1-148 .8l-5.8 5.8 5.8 4.9c34.5 31.2 88 33.7 148-.8l1081.2-614.2s-7.4-6.6-7.4-6.6z" opacity=".2"/><path d="m1630.5 1047.9-369.2 209.7 6.6 6.6 361.8-205.6c51.8-29.6 77.3-68.2 77.3-106.9-3.3 35.4-29.6 69.1-76.5 96.2z" opacity=".12"/><path d="m187.5 35.8 1443 819.8c46.9 26.3 73.2 60.8 77.3 96.2 0-38.6-25.5-77.3-77.3-106.9l-1443-819.8c-103.6-59.2-187.5-9.9-187.5 108.5v10.7c0-118.4 83.9-166.9 187.5-108.5z" fill="#fff" opacity=".25"/></g></svg>