<svg width="181" height="25" viewBox="0 0 181 25" fill="none" xmlns="http://www.w3.org/2000/svg">
<path d="M7.41676 1.35834L12.5499 17.2292L17.6831 1.35834H24.9796V24.1667H19.4012V18.825L19.9388 7.92084L14.3814 24.1708H10.7185L5.14422 7.92084L5.6777 18.825V24.15H0.132874V1.35834H7.41676Z" fill="#BA478F"/>
<path d="M38.4174 22.3333C37.898 22.9984 37.2349 23.5395 36.4767 23.9167C35.6594 24.3051 34.7616 24.4978 33.8555 24.4792C33.0697 24.4875 32.2878 24.3679 31.541 24.125C30.8594 23.9021 30.2416 23.5206 29.7389 23.0125C29.2076 22.4541 28.8086 21.785 28.5711 21.0542C28.2717 20.1255 28.1297 19.154 28.1511 18.1792V7.21667H33.4733V18.2125C33.447 18.5124 33.4819 18.8145 33.5757 19.1009C33.6695 19.3872 33.8204 19.6519 34.0194 19.8792C34.2351 20.0682 34.4866 20.2127 34.7592 20.3043C35.0318 20.3958 35.3201 20.4326 35.6072 20.4125C36.1671 20.4349 36.7236 20.3159 37.2244 20.0667C37.6344 19.843 37.9756 19.5132 38.2116 19.1125V7.21667H43.5674V24.1667H38.577L38.4174 22.3333Z" fill="#BA478F"/>
<path d="M55.4258 19.4042C55.4307 19.2015 55.3798 19.0012 55.2787 18.825C55.1439 18.6252 54.9623 18.4608 54.7494 18.3458C54.4248 18.1688 54.081 18.029 53.7245 17.9292C53.2932 17.7931 52.7458 17.6542 52.0821 17.5125C51.2828 17.3449 50.4988 17.1122 49.7381 16.8167C49.0521 16.5551 48.4083 16.1958 47.8268 15.75C47.3069 15.3433 46.8778 14.8339 46.5666 14.2542C46.2472 13.6448 46.0869 12.9658 46.1004 12.2792C46.0979 11.5684 46.2573 10.8662 46.5666 10.225C46.8895 9.56289 47.3556 8.97958 47.9318 8.51667C48.5893 7.99561 49.3385 7.60003 50.1414 7.35C51.1081 7.05378 52.1164 6.91311 53.128 6.93333C54.1803 6.92349 55.2286 7.06382 56.2407 7.35C57.0903 7.58495 57.8901 7.97031 58.6014 8.4875C59.2255 8.94634 59.7356 9.54065 60.0926 10.225C60.4443 10.9172 60.623 11.6832 60.6135 12.4583H55.2535C55.3 11.8978 55.1236 11.3416 54.762 10.9083C54.4344 10.5528 53.8743 10.375 53.0818 10.375C52.8223 10.3727 52.5641 10.4121 52.3173 10.4917C52.0908 10.5641 51.8789 10.6755 51.6914 10.8208C51.5238 10.9599 51.3865 11.1315 51.2881 11.325C51.1811 11.5281 51.1263 11.7542 51.1285 11.9833C51.1305 12.2136 51.1936 12.4392 51.3116 12.6375C51.4297 12.8357 51.5983 12.9996 51.8006 13.1125C52.4703 13.4791 53.2021 13.7206 53.9597 13.825C54.8001 13.9768 55.6305 14.1785 56.4465 14.4292C57.1919 14.6538 57.8996 14.9865 58.5468 15.4167C59.1446 15.8152 59.6442 16.3421 60.0086 16.9583C60.3917 17.6534 60.5803 18.4374 60.5547 19.2292C60.5612 19.9561 60.3821 20.6728 60.0338 21.3125C59.6715 21.9737 59.1614 22.5438 58.5426 22.9792C57.8302 23.4747 57.0374 23.8453 56.1987 24.075C55.192 24.3594 54.1495 24.4997 53.1028 24.4917C51.994 24.5113 50.8905 24.3364 49.8431 23.975C48.9782 23.6752 48.1755 23.222 47.474 22.6375C46.8671 22.1279 46.3749 21.4976 46.029 20.7875C45.7128 20.1506 45.5448 19.4515 45.5375 18.7417H50.511C50.4939 19.0666 50.5556 19.3909 50.6908 19.6874C50.826 19.9839 51.0308 20.244 51.2881 20.4458C51.8619 20.8269 52.5432 21.0167 53.233 20.9875C53.812 21.0301 54.3883 20.8758 54.8671 20.55C55.0448 20.4164 55.1882 20.2429 55.2853 20.0437C55.3824 19.8445 55.4305 19.6254 55.4258 19.4042Z" fill="#BA478F"/>
<path d="M63.0079 2.84584C63.0044 2.4902 63.0774 2.13791 63.2221 1.8125C63.3611 1.49376 63.569 1.20926 63.8312 0.979169C64.1045 0.743447 64.4212 0.562348 64.7637 0.445836C65.5433 0.195504 66.3827 0.195504 67.1623 0.445836C67.5047 0.567926 67.82 0.754706 68.0906 0.995836C68.3528 1.22602 68.5607 1.5105 68.6997 1.82917C68.8426 2.15817 68.9163 2.51262 68.9163 2.87084C68.9163 3.22905 68.8426 3.5835 68.6997 3.9125C68.5608 4.23124 68.3529 4.51575 68.0906 4.74584C67.8174 4.98156 67.5007 5.16266 67.1581 5.27917C66.3785 5.5295 65.5392 5.5295 64.7596 5.27917C64.4169 5.16285 64.1002 4.98173 63.827 4.74584C63.5647 4.51584 63.3567 4.23131 63.2179 3.9125C63.0699 3.57653 62.9982 3.21237 63.0079 2.84584V2.84584ZM68.6619 24.1667H63.3229V7.21667H68.6619V24.1667Z" fill="#BA478F"/>
<path d="M79.1635 20.4042C79.4794 20.4238 79.796 20.3804 80.0947 20.2767C80.3934 20.1729 80.6681 20.0108 80.9026 19.8C81.1129 19.5782 81.2749 19.3156 81.3783 19.0289C81.4816 18.7421 81.5242 18.4372 81.5033 18.1333H86.4936C86.5063 19.032 86.3199 19.9224 85.9475 20.7417C85.5929 21.5077 85.079 22.1907 84.4395 22.7459C83.7687 23.3205 82.991 23.7593 82.1502 24.0375C81.2302 24.3459 80.2647 24.4994 79.2937 24.4917C78.091 24.5178 76.8961 24.2935 75.7862 23.8334C74.8196 23.4264 73.9581 22.8082 73.2658 22.025C72.5809 21.2283 72.0677 20.3009 71.7578 19.3C71.413 18.1966 71.2429 17.0468 71.2537 15.8917V15.5292C71.2435 14.3713 71.4135 13.2189 71.7578 12.1125C72.0656 11.1099 72.5758 10.18 73.2574 9.37918C73.944 8.59811 74.7999 7.98131 75.761 7.57502C76.8623 7.11554 78.0488 6.89123 79.2433 6.91668C80.242 6.9056 81.2357 7.05907 82.1838 7.37085C83.03 7.64487 83.8096 8.09041 84.4731 8.67918C85.1204 9.27435 85.6268 10.0043 85.9559 10.8167C86.3218 11.7339 86.5017 12.7137 86.4852 13.7H81.5033C81.5054 13.3402 81.4602 12.9816 81.3688 12.6333C81.292 12.317 81.1489 12.0203 80.9488 11.7625C80.7461 11.5149 80.4889 11.3168 80.1969 11.1834C79.8616 11.0346 79.4971 10.962 79.1299 10.9708C78.6617 10.9472 78.1985 11.076 77.8109 11.3375C77.4719 11.5932 77.208 11.9342 77.0464 12.325C76.8543 12.7877 76.7339 13.2766 76.6893 13.775C76.6299 14.3523 76.6004 14.9322 76.6011 15.5125V15.875C76.5997 16.4636 76.6291 17.0519 76.6893 17.6375C76.7346 18.1332 76.8549 18.6192 77.0464 19.0792C77.2082 19.47 77.4793 19.8069 77.8277 20.05C78.2265 20.2996 78.6923 20.4231 79.1635 20.4042V20.4042Z" fill="#BA478F"/>
<path d="M88.9888 24.1667V1.35834H97.2472C98.5291 1.34387 99.8085 1.47245 101.061 1.74167C102.077 1.95258 103.044 2.34814 103.914 2.90834C104.668 3.40262 105.282 4.07952 105.699 4.875C106.127 5.73865 106.339 6.692 106.316 7.65417C106.318 8.16326 106.261 8.67085 106.144 9.16667C106.03 9.64939 105.842 10.1118 105.585 10.5375C105.319 10.9747 104.98 11.3636 104.582 11.6875C104.132 12.047 103.625 12.3288 103.082 12.5208C103.704 12.6699 104.293 12.9297 104.821 13.2875C105.273 13.6003 105.663 13.993 105.972 14.4458C106.264 14.8789 106.48 15.3579 106.61 15.8625C106.741 16.3661 106.808 16.8841 106.808 17.4042C106.808 19.6597 106.081 21.3486 104.628 22.4708C103.174 23.5931 101.021 24.1486 98.1671 24.1375L88.9888 24.1667ZM94.5336 10.8667H97.4236C98.6334 10.8667 99.4973 10.6472 100.015 10.2083C100.281 9.97147 100.489 9.67759 100.623 9.34906C100.757 9.02053 100.813 8.66601 100.788 8.3125C100.788 7.35139 100.508 6.65695 99.9482 6.22917C99.3881 5.80139 98.4878 5.59028 97.2472 5.59584H94.5294L94.5336 10.8667ZM94.5336 14.4708V19.9375H98.1671C98.6513 19.9482 99.1339 19.8792 99.5954 19.7333C99.9526 19.6196 100.281 19.4306 100.557 19.1792C100.802 18.9474 100.989 18.662 101.103 18.3458C101.221 18.0198 101.28 17.6755 101.276 17.3292C101.28 16.9264 101.226 16.5251 101.116 16.1375C101.022 15.8024 100.849 15.494 100.612 15.2375C100.362 14.9772 100.054 14.7788 99.713 14.6583C99.2805 14.5123 98.8255 14.4431 98.3688 14.4542L94.5336 14.4708Z" fill="#EB743B"/>
<path d="M119.943 11.9917L119.557 11.9542L119.082 11.9167L118.599 11.8833C118.442 11.8833 118.302 11.8833 118.179 11.8833C117.47 11.8554 116.763 11.9864 116.112 12.2667C115.596 12.5103 115.186 12.9304 114.957 13.45V24.1792H109.647V7.21666H114.638L114.81 9.39582C115.187 8.67315 115.731 8.04921 116.398 7.57499C117.033 7.13341 117.794 6.90293 118.57 6.91666C118.831 6.91638 119.092 6.93168 119.351 6.96249C119.588 6.99028 119.823 7.03766 120.052 7.10416L119.943 11.9917Z" fill="#EB743B"/>
<path d="M131.012 24.1667C130.89 23.9455 130.791 23.7123 130.718 23.4708C130.639 23.2153 130.568 22.9375 130.504 22.6375C130.016 23.2466 129.389 23.731 128.674 24.05C127.96 24.369 127.178 24.5133 126.395 24.4708C125.634 24.476 124.878 24.349 124.161 24.0958C123.489 23.8619 122.865 23.509 122.321 23.0542C121.793 22.6118 121.364 22.0655 121.061 21.45C120.744 20.8011 120.584 20.0877 120.594 19.3667C120.58 18.5577 120.745 17.7556 121.077 17.0167C121.407 16.3182 121.913 15.7166 122.548 15.2708C123.302 14.7527 124.149 14.3809 125.043 14.175C126.215 13.9005 127.417 13.7718 128.622 13.7917H130.26V12.9167C130.293 12.3112 130.127 11.7114 129.785 11.2083C129.594 10.9877 129.353 10.8158 129.081 10.707C128.809 10.5982 128.515 10.5558 128.223 10.5833C127.712 10.5489 127.208 10.7116 126.815 11.0375C126.64 11.2233 126.505 11.4434 126.421 11.6838C126.336 11.9242 126.303 12.1795 126.324 12.4333H121.019C121.014 11.6711 121.195 10.9191 121.548 10.2417C121.91 9.55134 122.426 8.95157 123.056 8.4875C123.768 7.96737 124.567 7.57531 125.417 7.32916C126.419 7.03815 127.46 6.8977 128.504 6.9125C129.462 6.90363 130.417 7.0299 131.34 7.2875C132.156 7.50907 132.92 7.89013 133.587 8.40833C134.221 8.919 134.729 9.5677 135.07 10.3042C135.443 11.1332 135.626 12.0339 135.607 12.9417V19.8875C135.607 20.4431 135.623 20.9236 135.654 21.3292C135.679 21.6901 135.727 22.0491 135.796 22.4042C135.85 22.6874 135.926 22.966 136.023 23.2375C136.108 23.4697 136.211 23.6953 136.33 23.9125V24.1792L131.012 24.1667ZM127.681 20.7208C128.26 20.7451 128.834 20.6002 129.332 20.3042C129.719 20.0671 130.038 19.7358 130.26 19.3417V16.6333H128.58C128.15 16.6217 127.723 16.691 127.32 16.8375C126.999 16.9516 126.711 17.1402 126.479 17.3875C126.276 17.6162 126.125 17.8864 126.038 18.1792C125.948 18.4821 125.902 18.7965 125.904 19.1125C125.896 19.3306 125.936 19.5478 126.021 19.7492C126.106 19.9506 126.233 20.1314 126.395 20.2792C126.57 20.4331 126.773 20.5514 126.994 20.6272C127.214 20.703 127.448 20.7348 127.681 20.7208V20.7208Z" fill="#EB743B"/>
<path d="M138.514 2.84584C138.511 2.4902 138.584 2.13791 138.728 1.8125C138.867 1.49376 139.075 1.20926 139.337 0.979169C139.611 0.743447 139.927 0.562348 140.27 0.445836C141.05 0.195504 141.889 0.195504 142.669 0.445836C143.011 0.562444 143.328 0.743533 143.601 0.979169C143.863 1.20935 144.071 1.49383 144.21 1.8125C144.353 2.1415 144.427 2.49595 144.427 2.85417C144.427 3.21239 144.353 3.56684 144.21 3.89583C144.071 4.21457 143.863 4.49908 143.601 4.72917C143.328 4.96489 143.011 5.14599 142.669 5.2625C141.889 5.51283 141.05 5.51283 140.27 5.2625C139.927 5.14618 139.611 4.96506 139.337 4.72917C139.075 4.49917 138.867 4.21464 138.728 3.89583C138.581 3.5653 138.508 3.20708 138.514 2.84584V2.84584ZM144.168 24.1667H138.833V7.21667H144.172L144.168 24.1667Z" fill="#EB743B"/>
<path d="M152.334 7.21667L152.506 9.20418C153.058 8.47317 153.778 7.88438 154.607 7.48751C155.474 7.08684 156.422 6.886 157.379 6.90001C158.117 6.89206 158.851 7.00613 159.551 7.23751C160.197 7.46109 160.775 7.84391 161.231 8.35001C161.745 8.94003 162.119 9.63604 162.328 10.3875C162.607 11.3996 162.738 12.4466 162.714 13.4958V24.1625H157.404V13.4833C157.417 13.0607 157.362 12.6387 157.241 12.2333C157.15 11.9422 156.987 11.6785 156.766 11.4667C156.553 11.2747 156.292 11.1424 156.01 11.0833C155.676 11.0128 155.335 10.9793 154.993 10.9833C154.5 10.9643 154.011 11.0781 153.578 11.3125C153.205 11.5304 152.893 11.8369 152.67 12.2042V24.1708H147.344V7.21667H152.334Z" fill="#EB743B"/>
<path d="M171.968 20.075H179.756V24.15H165.239V21.2208L172.8 11.2875H165.57V7.21667H179.579V10.075L171.968 20.075Z" fill="#EB743B"/>
</svg>
