<svg fill="none" height="16" viewBox="0 0 16 16" width="16" xmlns="http://www.w3.org/2000/svg"><path d="m7.99963.0263672c-4.40466 0-7.9755211 3.5707628-7.9755211 7.9754328 0 4.4049 3.5708611 7.9753 7.9755211 7.9753 4.40517 0 7.97567-3.5704 7.97567-7.9753 0-4.40439-3.5705-7.9750519-7.97576-7.9750519zm3.65757 11.5028328c-.1429.2343-.4496.3086-.6839.1648-1.87252-1.1438-4.22986-1.4029-7.00605-.7686-.26752.061-.53419-.1067-.59514-.3743-.06124-.2676.10571-.5343.3739-.59521 3.0381-.69438 5.6441-.39524 7.74639.88951.2343.1438.3086.4495.1648.6838zm.9761-2.17188c-.18.29286-.5628.38524-.8552.20524-2.1438-1.318-5.41171-1.69962-7.94742-.92991-.32886.09934-.67619-.086-.776-.41428-.09905-.32886.08638-.67553.41467-.77553 2.89647-.87885 6.49733-.45314 8.95925 1.05972.2924.18.3847.56285.2047.85485zm.0839-2.26133c-2.5705-1.52677-6.81147-1.66715-9.26566-.92229-.3941.11952-.81086-.10295-.93029-.49705-.11943-.39428.10286-.81076.49724-.93057 2.81724-.85524 7.50061-.69 10.46001 1.06686.3552.21038.4714.66819.2609 1.02219-.2095.35448-.6685.47133-1.0219.26086z" fill="#1ed760"/></svg>