<svg enable-background="new 0 0 400 400" height="300" viewBox="0 0 300 300" width="300" xmlns="http://www.w3.org/2000/svg"><rect fill="#fff" height="300" ry="49.137924" width="300"/><path d="m149.9375 79.222656s-63.218849.000059-79.085938 4.123047c-8.495787 2.373802-15.491408 9.3695-17.865234 17.990237-4.122953 15.8671-4.123047 48.72656-4.123047 48.72656s.000094 32.9842 4.123047 48.60156c2.373826 8.62062 9.244506 15.49138 17.865234 17.86524 15.99203 4.24788 79.085938 4.24804 79.085938 4.24804s63.34418-.00005 79.21094-4.12304c8.62079-2.37381 15.49133-9.11966 17.74023-17.86524 4.24793-15.74232 4.24805-48.60156 4.24805-48.60156s.12484-32.98446-4.24805-48.85156c-2.2489-8.620737-9.11944-15.491334-17.74023-17.740237-15.86676-4.372847-79.21094-4.373047-79.21094-4.373047zm-20.11523 40.480464 52.59961 30.35938-52.59961 30.23438z" fill="#f00" transform="matrix(1.00000001598 0 0 1.00000001598 .00000347549 .00001637735)"/></svg>